<svg xmlns="http://www.w3.org/2000/svg" xmlns:xlink="http://www.w3.org/1999/xlink" width="320" zoomAndPan="magnify" viewBox="0 0 240 239.999995" height="320" preserveAspectRatio="xMidYMid meet" version="1.0"><defs><g/><clipPath id="985bc4cf56"><rect x="0" width="168" y="0" height="25"/></clipPath><clipPath id="3a208708a3"><path d="M 112.109375 107.503906 L 140 107.503906 L 140 132 L 112.109375 132 Z M 112.109375 107.503906 " clip-rule="nonzero"/></clipPath><clipPath id="b408e100c1"><path d="M 123.878906 130.59375 L 112.890625 111.367188 C 112.429688 110.558594 112.433594 109.566406 112.898438 108.761719 C 113.367188 107.957031 114.226562 107.460938 115.15625 107.460938 L 137.0625 107.460938 C 137.992188 107.460938 138.855469 107.957031 139.320312 108.761719 C 139.789062 109.566406 139.792969 110.558594 139.328125 111.367188 L 128.34375 130.59375 C 127.886719 131.394531 127.035156 131.890625 126.109375 131.890625 C 125.1875 131.890625 124.335938 131.394531 123.878906 130.59375 Z M 123.878906 130.59375 " clip-rule="nonzero"/></clipPath><clipPath id="8473f7a476"><path d="M 112.90625 102.34375 L 139.359375 102.34375 L 139.359375 125.683594 L 112.90625 125.683594 Z M 112.90625 102.34375 " clip-rule="nonzero"/></clipPath><clipPath id="ceabac66c0"><path d="M 125.363281 125.230469 L 113.03125 103.648438 C 112.875 103.378906 112.878906 103.046875 113.03125 102.777344 C 113.1875 102.511719 113.476562 102.34375 113.785156 102.34375 L 138.429688 102.34375 C 138.738281 102.34375 139.023438 102.511719 139.179688 102.777344 C 139.335938 103.046875 139.335938 103.378906 139.183594 103.648438 L 126.851562 125.230469 C 126.699219 125.496094 126.414062 125.660156 126.105469 125.660156 C 125.800781 125.660156 125.515625 125.496094 125.363281 125.230469 Z M 125.363281 125.230469 " clip-rule="nonzero"/></clipPath><clipPath id="2f04d73572"><path d="M 0.90625 0.34375 L 27.359375 0.34375 L 27.359375 23.683594 L 0.90625 23.683594 Z M 0.90625 0.34375 " clip-rule="nonzero"/></clipPath><clipPath id="50781c02b1"><path d="M 13.363281 23.230469 L 1.03125 1.648438 C 0.875 1.378906 0.878906 1.046875 1.03125 0.777344 C 1.1875 0.511719 1.476562 0.34375 1.785156 0.34375 L 26.429688 0.34375 C 26.738281 0.34375 27.023438 0.511719 27.179688 0.777344 C 27.335938 1.046875 27.335938 1.378906 27.183594 1.648438 L 14.851562 23.230469 C 14.699219 23.496094 14.414062 23.660156 14.105469 23.660156 C 13.800781 23.660156 13.515625 23.496094 13.363281 23.230469 Z M 13.363281 23.230469 " clip-rule="nonzero"/></clipPath><clipPath id="3bd2250242"><rect x="0" width="28" y="0" height="24"/></clipPath><clipPath id="510fe0a94a"><path d="M 112.726562 102.53125 L 139.496094 102.53125 L 139.496094 125.667969 L 112.726562 125.667969 Z M 112.726562 102.53125 " clip-rule="nonzero"/></clipPath><clipPath id="1335a723c3"><path d="M 125.367188 125.230469 L 113.039062 103.660156 C 112.886719 103.390625 112.886719 103.058594 113.042969 102.789062 C 113.199219 102.523438 113.484375 102.355469 113.796875 102.355469 L 138.425781 102.355469 C 138.738281 102.355469 139.023438 102.523438 139.179688 102.789062 C 139.335938 103.058594 139.335938 103.390625 139.183594 103.660156 L 126.855469 125.230469 C 126.703125 125.496094 126.417969 125.664062 126.113281 125.664062 C 125.804688 125.664062 125.519531 125.496094 125.367188 125.230469 Z M 125.367188 125.230469 " clip-rule="nonzero"/></clipPath></defs><g fill="#ffffff" fill-opacity="1"><g transform="translate(40.004564, 129.142595)"><g><path d="M 23.921875 -26.078125 C 24.816406 -26.078125 25.535156 -25.785156 26.078125 -25.203125 C 26.617188 -24.628906 26.890625 -23.945312 26.890625 -23.15625 L 26.890625 -1.59375 C 26.890625 0.90625 26.3125 3.007812 25.15625 4.71875 C 24 6.425781 22.445312 7.707031 20.5 8.5625 C 18.550781 9.414062 16.378906 9.84375 13.984375 9.84375 C 12.003906 9.84375 10.210938 9.582031 8.609375 9.0625 C 7.003906 8.550781 5.5 7.648438 4.09375 6.359375 C 3.414062 5.671875 3.09375 4.96875 3.125 4.25 C 3.15625 3.53125 3.425781 2.914062 3.9375 2.40625 C 4.457031 1.894531 5.082031 1.601562 5.8125 1.53125 C 6.550781 1.46875 7.257812 1.742188 7.9375 2.359375 C 9 3.273438 9.984375 3.867188 10.890625 4.140625 C 11.796875 4.421875 12.828125 4.5625 13.984375 4.5625 C 15.210938 4.5625 16.375 4.347656 17.46875 3.921875 C 18.5625 3.492188 19.445312 2.816406 20.125 1.890625 C 20.8125 0.972656 21.15625 -0.1875 21.15625 -1.59375 L 21.15625 -2.046875 C 20 -1.191406 18.734375 -0.550781 17.359375 -0.125 C 15.992188 0.300781 14.71875 0.515625 13.53125 0.515625 C 11.070312 0.515625 8.910156 -0.046875 7.046875 -1.171875 C 5.179688 -2.304688 3.726562 -3.894531 2.6875 -5.9375 C 1.644531 -7.988281 1.125 -10.378906 1.125 -13.109375 C 1.125 -15.773438 1.648438 -18.113281 2.703125 -20.125 C 3.765625 -22.144531 5.242188 -23.726562 7.140625 -24.875 C 9.035156 -26.019531 11.234375 -26.59375 13.734375 -26.59375 C 14.890625 -26.59375 16.125 -26.421875 17.4375 -26.078125 C 18.757812 -25.734375 20 -25.132812 21.15625 -24.28125 C 21.53125 -25.476562 22.453125 -26.078125 23.921875 -26.078125 Z M 13.671875 -4.65625 C 15.242188 -4.65625 16.738281 -5 18.15625 -5.6875 C 19.570312 -6.375 20.554688 -7.398438 21.109375 -8.765625 L 21.109375 -17.3125 C 20.460938 -18.613281 19.476562 -19.625 18.15625 -20.34375 C 16.84375 -21.0625 15.503906 -21.421875 14.140625 -21.421875 C 11.984375 -21.421875 10.25 -20.632812 8.9375 -19.0625 C 7.625 -17.488281 6.96875 -15.488281 6.96875 -13.0625 C 6.96875 -10.539062 7.582031 -8.507812 8.8125 -6.96875 C 10.039062 -5.425781 11.660156 -4.65625 13.671875 -4.65625 Z M 13.671875 -4.65625 "/></g></g></g><g fill="#ffffff" fill-opacity="1"><g transform="translate(69.713322, 129.142595)"><g><path d="M 13.828125 -26.078125 C 14.753906 -26.078125 15.488281 -25.878906 16.03125 -25.484375 C 16.582031 -25.097656 16.859375 -24.457031 16.859375 -23.5625 C 16.859375 -22.75 16.582031 -22.101562 16.03125 -21.625 C 15.488281 -21.144531 14.753906 -20.90625 13.828125 -20.90625 C 11.679688 -20.90625 10.171875 -20.132812 9.296875 -18.59375 C 8.429688 -17.0625 8 -14.976562 8 -12.34375 L 8 -2.609375 C 8 -1.859375 7.722656 -1.234375 7.171875 -0.734375 C 6.628906 -0.242188 5.960938 0 5.171875 0 C 4.285156 0 3.566406 -0.242188 3.015625 -0.734375 C 2.472656 -1.234375 2.203125 -1.859375 2.203125 -2.609375 L 2.203125 -23.46875 C 2.203125 -24.28125 2.515625 -24.914062 3.140625 -25.375 C 3.773438 -25.84375 4.453125 -26.078125 5.171875 -26.078125 C 5.890625 -26.078125 6.539062 -25.851562 7.125 -25.40625 C 7.707031 -24.96875 8 -24.320312 8 -23.46875 L 8 -23.15625 C 8.75 -24.144531 9.617188 -24.878906 10.609375 -25.359375 C 11.597656 -25.835938 12.671875 -26.078125 13.828125 -26.078125 Z M 13.828125 -26.078125 "/></g></g></g><g fill="#ffffff" fill-opacity="1"><g transform="translate(85.028502, 129.142595)"><g><path d="M 14.65625 -26.59375 C 17.382812 -26.59375 19.773438 -26.019531 21.828125 -24.875 C 23.878906 -23.726562 25.46875 -22.128906 26.59375 -20.078125 C 27.71875 -18.035156 28.28125 -15.644531 28.28125 -12.90625 C 28.25 -10.25 27.660156 -7.910156 26.515625 -5.890625 C 25.367188 -3.878906 23.78125 -2.304688 21.75 -1.171875 C 19.71875 -0.046875 17.351562 0.515625 14.65625 0.515625 C 11.988281 0.515625 9.628906 -0.046875 7.578125 -1.171875 C 5.535156 -2.304688 3.941406 -3.878906 2.796875 -5.890625 C 1.648438 -7.910156 1.0625 -10.25 1.03125 -12.90625 C 1.03125 -15.644531 1.597656 -18.035156 2.734375 -20.078125 C 3.878906 -22.128906 5.476562 -23.726562 7.53125 -24.875 C 9.582031 -26.019531 11.957031 -26.59375 14.65625 -26.59375 Z M 14.65625 -4.609375 C 16.976562 -4.609375 18.828125 -5.375 20.203125 -6.90625 C 21.585938 -8.445312 22.28125 -10.445312 22.28125 -12.90625 C 22.28125 -15.4375 21.585938 -17.492188 20.203125 -19.078125 C 18.828125 -20.671875 16.976562 -21.46875 14.65625 -21.46875 C 12.363281 -21.46875 10.515625 -20.671875 9.109375 -19.078125 C 7.710938 -17.492188 7.015625 -15.4375 7.015625 -12.90625 C 7.015625 -10.445312 7.710938 -8.445312 9.109375 -6.90625 C 10.515625 -5.375 12.363281 -4.609375 14.65625 -4.609375 Z M 14.65625 -4.609375 "/></g></g></g><g fill="#ffffff" fill-opacity="1"><g transform="translate(113.457685, 129.142595)"><g/></g></g><g fill="#ffffff" fill-opacity="1"><g transform="translate(125.494614, 129.142595)"><g/></g></g><g fill="#ffffff" fill-opacity="1"><g transform="translate(137.539714, 129.142595)"><g><path d="M 14.65625 -4.5625 C 15.644531 -4.5625 16.617188 -4.695312 17.578125 -4.96875 C 18.535156 -5.238281 19.421875 -5.703125 20.234375 -6.359375 C 21.023438 -7.066406 21.796875 -7.394531 22.546875 -7.34375 C 23.296875 -7.300781 23.914062 -7.03125 24.40625 -6.53125 C 24.90625 -6.039062 25.15625 -5.425781 25.15625 -4.6875 C 25.15625 -3.957031 24.796875 -3.25 24.078125 -2.5625 C 22.878906 -1.394531 21.460938 -0.582031 19.828125 -0.125 C 18.191406 0.332031 16.519531 0.546875 14.8125 0.515625 C 12.144531 0.515625 9.796875 -0.03125 7.765625 -1.125 C 5.734375 -2.21875 4.144531 -3.738281 3 -5.6875 C 1.851562 -7.632812 1.28125 -9.890625 1.28125 -12.453125 C 1.28125 -15.253906 1.828125 -17.710938 2.921875 -19.828125 C 4.015625 -21.941406 5.554688 -23.597656 7.546875 -24.796875 C 9.546875 -25.992188 11.914062 -26.59375 14.65625 -26.59375 C 17.382812 -26.59375 19.703125 -26.035156 21.609375 -24.921875 C 23.523438 -23.816406 24.988281 -22.265625 26 -20.265625 C 27.007812 -18.265625 27.515625 -15.929688 27.515625 -13.265625 C 27.515625 -12.410156 27.34375 -11.6875 27 -11.09375 C 26.65625 -10.5 25.75 -10.203125 24.28125 -10.203125 L 7.21875 -10.203125 C 7.695312 -8.523438 8.601562 -7.164062 9.9375 -6.125 C 11.269531 -5.082031 12.84375 -4.5625 14.65625 -4.5625 Z M 14.703125 -21.515625 C 12.722656 -21.515625 11.066406 -20.890625 9.734375 -19.640625 C 8.398438 -18.398438 7.546875 -16.769531 7.171875 -14.75 L 22.078125 -14.75 C 21.910156 -16.769531 21.242188 -18.398438 20.078125 -19.640625 C 18.921875 -20.890625 17.128906 -21.515625 14.703125 -21.515625 Z M 14.703125 -21.515625 "/></g></g></g><g fill="#ffffff" fill-opacity="1"><g transform="translate(167.299695, 129.142595)"><g><path d="M 0.671875 -6.09375 C 0.429688 -7.050781 0.648438 -7.820312 1.328125 -8.40625 C 2.015625 -8.988281 2.769531 -9.28125 3.59375 -9.28125 C 4.207031 -9.28125 4.75 -9.097656 5.21875 -8.734375 C 5.695312 -8.378906 6.054688 -7.84375 6.296875 -7.125 C 6.503906 -6.507812 6.945312 -6.003906 7.625 -5.609375 C 8.3125 -5.210938 9.109375 -4.929688 10.015625 -4.765625 C 10.921875 -4.597656 11.832031 -4.515625 12.75 -4.515625 C 14.601562 -4.515625 16.09375 -4.84375 17.21875 -5.5 C 18.34375 -6.164062 18.90625 -7.015625 18.90625 -8.046875 C 18.90625 -8.765625 18.601562 -9.289062 18 -9.625 C 17.40625 -9.96875 16.617188 -10.207031 15.640625 -10.34375 C 14.671875 -10.476562 13.640625 -10.582031 12.546875 -10.65625 C 11.117188 -10.789062 9.710938 -10.957031 8.328125 -11.15625 C 6.941406 -11.363281 5.6875 -11.71875 4.5625 -12.21875 C 3.4375 -12.71875 2.53125 -13.453125 1.84375 -14.421875 C 1.15625 -15.390625 0.8125 -16.710938 0.8125 -18.390625 C 0.8125 -20.035156 1.289062 -21.472656 2.25 -22.703125 C 3.207031 -23.929688 4.554688 -24.882812 6.296875 -25.5625 C 8.046875 -26.25 10.0625 -26.59375 12.34375 -26.59375 C 13.675781 -26.59375 15.109375 -26.460938 16.640625 -26.203125 C 18.179688 -25.953125 19.609375 -25.429688 20.921875 -24.640625 C 22.242188 -23.859375 23.210938 -22.644531 23.828125 -21 C 24.066406 -20.320312 24.046875 -19.71875 23.765625 -19.1875 C 23.492188 -18.65625 23.09375 -18.253906 22.5625 -17.984375 C 22.039062 -17.710938 21.503906 -17.578125 20.953125 -17.578125 C 20.335938 -17.578125 19.832031 -17.695312 19.4375 -17.9375 C 19.050781 -18.175781 18.71875 -18.582031 18.4375 -19.15625 C 18.132812 -19.875 17.613281 -20.40625 16.875 -20.75 C 16.144531 -21.09375 15.359375 -21.304688 14.515625 -21.390625 C 13.679688 -21.472656 12.957031 -21.515625 12.34375 -21.515625 C 10.632812 -21.515625 9.257812 -21.222656 8.21875 -20.640625 C 7.175781 -20.066406 6.65625 -19.300781 6.65625 -18.34375 C 6.65625 -17.519531 6.925781 -16.960938 7.46875 -16.671875 C 8.019531 -16.378906 8.765625 -16.207031 9.703125 -16.15625 C 10.648438 -16.113281 11.703125 -16.019531 12.859375 -15.875 C 14.296875 -15.707031 15.710938 -15.519531 17.109375 -15.3125 C 18.515625 -15.113281 19.796875 -14.765625 20.953125 -14.265625 C 22.117188 -13.773438 23.039062 -13.039062 23.71875 -12.0625 C 24.40625 -11.09375 24.75 -9.753906 24.75 -8.046875 C 24.75 -6.367188 24.242188 -4.878906 23.234375 -3.578125 C 22.222656 -2.285156 20.820312 -1.28125 19.03125 -0.5625 C 17.238281 0.15625 15.144531 0.515625 12.75 0.515625 C 11.695312 0.515625 10.546875 0.4375 9.296875 0.28125 C 8.046875 0.125 6.832031 -0.179688 5.65625 -0.640625 C 4.476562 -1.097656 3.445312 -1.757812 2.5625 -2.625 C 1.675781 -3.5 1.046875 -4.65625 0.671875 -6.09375 Z M 0.671875 -6.09375 "/></g></g></g><g fill="#18cb96" fill-opacity="1"><g transform="translate(192.758461, 129.142595)"><g><path d="M 3.6875 -5.484375 C 4.675781 -5.484375 5.46875 -5.203125 6.0625 -4.640625 C 6.664062 -4.078125 6.96875 -3.347656 6.96875 -2.453125 C 6.96875 -1.597656 6.664062 -0.890625 6.0625 -0.328125 C 5.46875 0.234375 4.675781 0.515625 3.6875 0.515625 C 2.726562 0.515625 1.925781 0.234375 1.28125 -0.328125 C 0.632812 -0.890625 0.3125 -1.597656 0.3125 -2.453125 C 0.3125 -3.347656 0.632812 -4.078125 1.28125 -4.640625 C 1.925781 -5.203125 2.726562 -5.484375 3.6875 -5.484375 Z M 3.6875 -5.484375 "/></g></g></g><g transform="matrix(1, 0, 0, 1, 36, 136)"><g clip-path="url(#985bc4cf56)"><g fill="#ffffff" fill-opacity="1"><g transform="translate(1.210426, 18.084608)"><g><path d="M 4.234375 0.125 C 3.253906 0.125 2.457031 -0.0859375 1.84375 -0.515625 C 1.226562 -0.941406 0.882812 -1.554688 0.8125 -2.359375 L 1.546875 -2.359375 C 1.597656 -1.785156 1.859375 -1.332031 2.328125 -1 C 2.796875 -0.664062 3.429688 -0.5 4.234375 -0.5 C 4.898438 -0.5 5.425781 -0.664062 5.8125 -1 C 6.207031 -1.34375 6.40625 -1.757812 6.40625 -2.25 C 6.40625 -2.59375 6.300781 -2.875 6.09375 -3.09375 C 5.882812 -3.320312 5.625 -3.492188 5.3125 -3.609375 C 5 -3.722656 4.578125 -3.851562 4.046875 -4 C 3.398438 -4.164062 2.878906 -4.332031 2.484375 -4.5 C 2.085938 -4.664062 1.75 -4.914062 1.46875 -5.25 C 1.1875 -5.582031 1.046875 -6.03125 1.046875 -6.59375 C 1.046875 -7 1.164062 -7.375 1.40625 -7.71875 C 1.65625 -8.070312 2 -8.347656 2.4375 -8.546875 C 2.882812 -8.753906 3.390625 -8.859375 3.953125 -8.859375 C 4.859375 -8.859375 5.59375 -8.628906 6.15625 -8.171875 C 6.71875 -7.710938 7.023438 -7.082031 7.078125 -6.28125 L 6.34375 -6.28125 C 6.3125 -6.863281 6.085938 -7.335938 5.671875 -7.703125 C 5.253906 -8.066406 4.675781 -8.25 3.9375 -8.25 C 3.3125 -8.25 2.789062 -8.085938 2.375 -7.765625 C 1.96875 -7.441406 1.765625 -7.050781 1.765625 -6.59375 C 1.765625 -6.1875 1.878906 -5.851562 2.109375 -5.59375 C 2.347656 -5.34375 2.632812 -5.148438 2.96875 -5.015625 C 3.3125 -4.878906 3.757812 -4.738281 4.3125 -4.59375 C 4.925781 -4.425781 5.414062 -4.265625 5.78125 -4.109375 C 6.15625 -3.953125 6.472656 -3.726562 6.734375 -3.4375 C 6.992188 -3.144531 7.125 -2.75 7.125 -2.25 C 7.125 -1.800781 7 -1.394531 6.75 -1.03125 C 6.5 -0.664062 6.15625 -0.378906 5.71875 -0.171875 C 5.28125 0.0234375 4.785156 0.125 4.234375 0.125 Z M 4.234375 0.125 "/></g></g></g><g fill="#ffffff" fill-opacity="1"><g transform="translate(8.606401, 18.084608)"><g><path d="M 5.171875 0.125 C 4.359375 0.125 3.625 -0.0546875 2.96875 -0.421875 C 2.3125 -0.785156 1.796875 -1.304688 1.421875 -1.984375 C 1.054688 -2.671875 0.875 -3.46875 0.875 -4.375 C 0.875 -5.28125 1.0625 -6.070312 1.4375 -6.75 C 1.8125 -7.4375 2.328125 -7.957031 2.984375 -8.3125 C 3.648438 -8.675781 4.390625 -8.859375 5.203125 -8.859375 C 6.015625 -8.859375 6.75 -8.675781 7.40625 -8.3125 C 8.0625 -7.957031 8.570312 -7.441406 8.9375 -6.765625 C 9.3125 -6.085938 9.5 -5.289062 9.5 -4.375 C 9.5 -3.46875 9.3125 -2.671875 8.9375 -1.984375 C 8.5625 -1.304688 8.039062 -0.785156 7.375 -0.421875 C 6.71875 -0.0546875 5.984375 0.125 5.171875 0.125 Z M 5.171875 -0.515625 C 5.804688 -0.515625 6.398438 -0.65625 6.953125 -0.9375 C 7.503906 -1.226562 7.945312 -1.660156 8.28125 -2.234375 C 8.613281 -2.816406 8.78125 -3.53125 8.78125 -4.375 C 8.78125 -5.21875 8.613281 -5.925781 8.28125 -6.5 C 7.945312 -7.082031 7.503906 -7.515625 6.953125 -7.796875 C 6.410156 -8.085938 5.820312 -8.234375 5.1875 -8.234375 C 4.550781 -8.234375 3.960938 -8.085938 3.421875 -7.796875 C 2.878906 -7.515625 2.441406 -7.082031 2.109375 -6.5 C 1.773438 -5.925781 1.609375 -5.21875 1.609375 -4.375 C 1.609375 -3.53125 1.769531 -2.816406 2.09375 -2.234375 C 2.425781 -1.660156 2.863281 -1.226562 3.40625 -0.9375 C 3.945312 -0.65625 4.535156 -0.515625 5.171875 -0.515625 Z M 5.171875 -0.515625 "/></g></g></g><g fill="#ffffff" fill-opacity="1"><g transform="translate(18.387176, 18.084608)"><g><path d="M 2.046875 -11.921875 L 2.046875 0 L 1.328125 0 L 1.328125 -11.921875 Z M 2.046875 -11.921875 "/></g></g></g><g fill="#ffffff" fill-opacity="1"><g transform="translate(21.158552, 18.084608)"><g><path d="M 8.71875 -8.75 L 8.71875 0 L 7.984375 0 L 7.984375 -1.90625 C 7.742188 -1.238281 7.332031 -0.726562 6.75 -0.375 C 6.175781 -0.03125 5.519531 0.140625 4.78125 0.140625 C 3.738281 0.140625 2.882812 -0.175781 2.21875 -0.8125 C 1.5625 -1.445312 1.234375 -2.394531 1.234375 -3.65625 L 1.234375 -8.75 L 1.953125 -8.75 L 1.953125 -3.703125 C 1.953125 -2.660156 2.210938 -1.863281 2.734375 -1.3125 C 3.265625 -0.757812 3.976562 -0.484375 4.875 -0.484375 C 5.820312 -0.484375 6.578125 -0.78125 7.140625 -1.375 C 7.703125 -1.976562 7.984375 -2.875 7.984375 -4.0625 L 7.984375 -8.75 Z M 8.71875 -8.75 "/></g></g></g><g fill="#ffffff" fill-opacity="1"><g transform="translate(30.584838, 18.084608)"><g><path d="M 5.109375 -0.5 C 5.960938 -0.5 6.679688 -0.710938 7.265625 -1.140625 C 7.859375 -1.566406 8.222656 -2.160156 8.359375 -2.921875 L 9.125 -2.921875 C 8.957031 -2.035156 8.539062 -1.316406 7.875 -0.765625 C 7.21875 -0.210938 6.375 0.0820312 5.34375 0.125 L 5.34375 1.25 C 6 1.21875 6.503906 1.320312 6.859375 1.5625 C 7.210938 1.8125 7.390625 2.171875 7.390625 2.640625 C 7.390625 3.085938 7.226562 3.445312 6.90625 3.71875 C 6.59375 3.988281 6.15625 4.125 5.59375 4.125 L 4.28125 4.125 L 4.28125 3.59375 L 5.46875 3.59375 C 5.925781 3.59375 6.253906 3.507812 6.453125 3.34375 C 6.648438 3.1875 6.75 2.953125 6.75 2.640625 C 6.75 2.046875 6.320312 1.75 5.46875 1.75 L 4.78125 1.75 L 4.78125 0.109375 C 4.019531 0.0664062 3.34375 -0.140625 2.75 -0.515625 C 2.164062 -0.890625 1.707031 -1.410156 1.375 -2.078125 C 1.039062 -2.742188 0.875 -3.507812 0.875 -4.375 C 0.875 -5.289062 1.050781 -6.085938 1.40625 -6.765625 C 1.769531 -7.441406 2.269531 -7.957031 2.90625 -8.3125 C 3.539062 -8.675781 4.273438 -8.859375 5.109375 -8.859375 C 6.203125 -8.859375 7.097656 -8.582031 7.796875 -8.03125 C 8.503906 -7.488281 8.945312 -6.753906 9.125 -5.828125 L 8.359375 -5.828125 C 8.222656 -6.578125 7.859375 -7.164062 7.265625 -7.59375 C 6.679688 -8.03125 5.960938 -8.25 5.109375 -8.25 C 4.460938 -8.25 3.875 -8.101562 3.34375 -7.8125 C 2.820312 -7.53125 2.398438 -7.097656 2.078125 -6.515625 C 1.765625 -5.929688 1.609375 -5.21875 1.609375 -4.375 C 1.609375 -3.53125 1.765625 -2.816406 2.078125 -2.234375 C 2.398438 -1.660156 2.820312 -1.226562 3.34375 -0.9375 C 3.875 -0.644531 4.460938 -0.5 5.109375 -0.5 Z M 5.109375 -0.5 "/></g></g></g><g fill="#ffffff" fill-opacity="1"><g transform="translate(39.978898, 18.084608)"><g><path d="M 5.171875 0.125 C 4.359375 0.125 3.625 -0.0546875 2.96875 -0.421875 C 2.3125 -0.785156 1.796875 -1.304688 1.421875 -1.984375 C 1.054688 -2.671875 0.875 -3.46875 0.875 -4.375 C 0.875 -5.28125 1.0625 -6.070312 1.4375 -6.75 C 1.8125 -7.4375 2.328125 -7.957031 2.984375 -8.3125 C 3.648438 -8.675781 4.390625 -8.859375 5.203125 -8.859375 C 6.015625 -8.859375 6.75 -8.675781 7.40625 -8.3125 C 8.0625 -7.957031 8.570312 -7.441406 8.9375 -6.765625 C 9.3125 -6.085938 9.5 -5.289062 9.5 -4.375 C 9.5 -3.46875 9.3125 -2.671875 8.9375 -1.984375 C 8.5625 -1.304688 8.039062 -0.785156 7.375 -0.421875 C 6.71875 -0.0546875 5.984375 0.125 5.171875 0.125 Z M 5.171875 -0.515625 C 5.804688 -0.515625 6.398438 -0.65625 6.953125 -0.9375 C 7.503906 -1.226562 7.945312 -1.660156 8.28125 -2.234375 C 8.613281 -2.816406 8.78125 -3.53125 8.78125 -4.375 C 8.78125 -5.21875 8.613281 -5.925781 8.28125 -6.5 C 7.945312 -7.082031 7.503906 -7.515625 6.953125 -7.796875 C 6.410156 -8.085938 5.820312 -8.234375 5.1875 -8.234375 C 4.550781 -8.234375 3.960938 -8.085938 3.421875 -7.796875 C 2.878906 -7.515625 2.441406 -7.082031 2.109375 -6.5 C 1.773438 -5.925781 1.609375 -5.21875 1.609375 -4.375 C 1.609375 -3.53125 1.769531 -2.816406 2.09375 -2.234375 C 2.425781 -1.660156 2.863281 -1.226562 3.40625 -0.9375 C 3.945312 -0.65625 4.535156 -0.515625 5.171875 -0.515625 Z M 3.40625 -9.78125 C 3.457031 -10.1875 3.585938 -10.5 3.796875 -10.71875 C 4.003906 -10.945312 4.269531 -11.0625 4.59375 -11.0625 C 4.78125 -11.0625 4.941406 -11.023438 5.078125 -10.953125 C 5.222656 -10.890625 5.378906 -10.785156 5.546875 -10.640625 C 5.710938 -10.515625 5.847656 -10.421875 5.953125 -10.359375 C 6.066406 -10.304688 6.207031 -10.28125 6.375 -10.28125 C 6.550781 -10.28125 6.703125 -10.34375 6.828125 -10.46875 C 6.960938 -10.59375 7.046875 -10.773438 7.078125 -11.015625 L 7.5625 -11.015625 C 7.53125 -10.628906 7.398438 -10.320312 7.171875 -10.09375 C 6.953125 -9.863281 6.679688 -9.75 6.359375 -9.75 C 6.148438 -9.75 5.972656 -9.785156 5.828125 -9.859375 C 5.679688 -9.929688 5.519531 -10.039062 5.34375 -10.1875 C 5.1875 -10.300781 5.054688 -10.382812 4.953125 -10.4375 C 4.847656 -10.5 4.722656 -10.53125 4.578125 -10.53125 C 4.179688 -10.53125 3.953125 -10.28125 3.890625 -9.78125 Z M 3.40625 -9.78125 "/></g></g></g><g fill="#ffffff" fill-opacity="1"><g transform="translate(49.759673, 18.084608)"><g><path d="M 9.203125 -4.96875 C 9.203125 -4.570312 9.191406 -4.28125 9.171875 -4.09375 L 1.609375 -4.09375 C 1.628906 -3.3125 1.800781 -2.648438 2.125 -2.109375 C 2.445312 -1.578125 2.867188 -1.175781 3.390625 -0.90625 C 3.921875 -0.632812 4.5 -0.5 5.125 -0.5 C 5.976562 -0.5 6.695312 -0.707031 7.28125 -1.125 C 7.863281 -1.550781 8.226562 -2.132812 8.375 -2.875 L 9.140625 -2.875 C 8.960938 -1.976562 8.519531 -1.253906 7.8125 -0.703125 C 7.101562 -0.148438 6.207031 0.125 5.125 0.125 C 4.3125 0.125 3.582031 -0.0546875 2.9375 -0.421875 C 2.289062 -0.785156 1.785156 -1.304688 1.421875 -1.984375 C 1.054688 -2.671875 0.875 -3.46875 0.875 -4.375 C 0.875 -5.289062 1.050781 -6.085938 1.40625 -6.765625 C 1.769531 -7.441406 2.269531 -7.957031 2.90625 -8.3125 C 3.550781 -8.675781 4.289062 -8.859375 5.125 -8.859375 C 5.957031 -8.859375 6.679688 -8.675781 7.296875 -8.3125 C 7.921875 -7.957031 8.394531 -7.484375 8.71875 -6.890625 C 9.039062 -6.296875 9.203125 -5.65625 9.203125 -4.96875 Z M 8.46875 -4.6875 C 8.5 -5.457031 8.363281 -6.109375 8.0625 -6.640625 C 7.757812 -7.179688 7.34375 -7.582031 6.8125 -7.84375 C 6.289062 -8.113281 5.722656 -8.25 5.109375 -8.25 C 4.492188 -8.25 3.925781 -8.113281 3.40625 -7.84375 C 2.882812 -7.582031 2.457031 -7.179688 2.125 -6.640625 C 1.800781 -6.109375 1.628906 -5.457031 1.609375 -4.6875 Z M 8.46875 -4.6875 "/></g></g></g><g fill="#ffffff" fill-opacity="1"><g transform="translate(59.218184, 18.084608)"><g><path d="M 4.234375 0.125 C 3.253906 0.125 2.457031 -0.0859375 1.84375 -0.515625 C 1.226562 -0.941406 0.882812 -1.554688 0.8125 -2.359375 L 1.546875 -2.359375 C 1.597656 -1.785156 1.859375 -1.332031 2.328125 -1 C 2.796875 -0.664062 3.429688 -0.5 4.234375 -0.5 C 4.898438 -0.5 5.425781 -0.664062 5.8125 -1 C 6.207031 -1.34375 6.40625 -1.757812 6.40625 -2.25 C 6.40625 -2.59375 6.300781 -2.875 6.09375 -3.09375 C 5.882812 -3.320312 5.625 -3.492188 5.3125 -3.609375 C 5 -3.722656 4.578125 -3.851562 4.046875 -4 C 3.398438 -4.164062 2.878906 -4.332031 2.484375 -4.5 C 2.085938 -4.664062 1.75 -4.914062 1.46875 -5.25 C 1.1875 -5.582031 1.046875 -6.03125 1.046875 -6.59375 C 1.046875 -7 1.164062 -7.375 1.40625 -7.71875 C 1.65625 -8.070312 2 -8.347656 2.4375 -8.546875 C 2.882812 -8.753906 3.390625 -8.859375 3.953125 -8.859375 C 4.859375 -8.859375 5.59375 -8.628906 6.15625 -8.171875 C 6.71875 -7.710938 7.023438 -7.082031 7.078125 -6.28125 L 6.34375 -6.28125 C 6.3125 -6.863281 6.085938 -7.335938 5.671875 -7.703125 C 5.253906 -8.066406 4.675781 -8.25 3.9375 -8.25 C 3.3125 -8.25 2.789062 -8.085938 2.375 -7.765625 C 1.96875 -7.441406 1.765625 -7.050781 1.765625 -6.59375 C 1.765625 -6.1875 1.878906 -5.851562 2.109375 -5.59375 C 2.347656 -5.34375 2.632812 -5.148438 2.96875 -5.015625 C 3.3125 -4.878906 3.757812 -4.738281 4.3125 -4.59375 C 4.925781 -4.425781 5.414062 -4.265625 5.78125 -4.109375 C 6.15625 -3.953125 6.472656 -3.726562 6.734375 -3.4375 C 6.992188 -3.144531 7.125 -2.75 7.125 -2.25 C 7.125 -1.800781 7 -1.394531 6.75 -1.03125 C 6.5 -0.664062 6.15625 -0.378906 5.71875 -0.171875 C 5.28125 0.0234375 4.785156 0.125 4.234375 0.125 Z M 4.234375 0.125 "/></g></g></g><g fill="#ffffff" fill-opacity="1"><g transform="translate(66.614159, 18.084608)"><g/></g></g><g fill="#ffffff" fill-opacity="1"><g transform="translate(70.545716, 18.084608)"><g><path d="M 2.40625 -8.125 L 2.40625 -2.328125 C 2.40625 -1.691406 2.519531 -1.25 2.75 -1 C 2.988281 -0.757812 3.410156 -0.640625 4.015625 -0.640625 L 5 -0.640625 L 5 0 L 3.90625 0 C 3.132812 0 2.566406 -0.175781 2.203125 -0.53125 C 1.847656 -0.894531 1.671875 -1.492188 1.671875 -2.328125 L 1.671875 -8.125 L 0.359375 -8.125 L 0.359375 -8.75 L 1.671875 -8.75 L 1.671875 -10.96875 L 2.40625 -10.96875 L 2.40625 -8.75 L 5 -8.75 L 5 -8.125 Z M 2.40625 -8.125 "/></g></g></g><g fill="#ffffff" fill-opacity="1"><g transform="translate(75.524653, 18.084608)"><g><path d="M 9.203125 -4.96875 C 9.203125 -4.570312 9.191406 -4.28125 9.171875 -4.09375 L 1.609375 -4.09375 C 1.628906 -3.3125 1.800781 -2.648438 2.125 -2.109375 C 2.445312 -1.578125 2.867188 -1.175781 3.390625 -0.90625 C 3.921875 -0.632812 4.5 -0.5 5.125 -0.5 C 5.976562 -0.5 6.695312 -0.707031 7.28125 -1.125 C 7.863281 -1.550781 8.226562 -2.132812 8.375 -2.875 L 9.140625 -2.875 C 8.960938 -1.976562 8.519531 -1.253906 7.8125 -0.703125 C 7.101562 -0.148438 6.207031 0.125 5.125 0.125 C 4.3125 0.125 3.582031 -0.0546875 2.9375 -0.421875 C 2.289062 -0.785156 1.785156 -1.304688 1.421875 -1.984375 C 1.054688 -2.671875 0.875 -3.46875 0.875 -4.375 C 0.875 -5.289062 1.050781 -6.085938 1.40625 -6.765625 C 1.769531 -7.441406 2.269531 -7.957031 2.90625 -8.3125 C 3.550781 -8.675781 4.289062 -8.859375 5.125 -8.859375 C 5.957031 -8.859375 6.679688 -8.675781 7.296875 -8.3125 C 7.921875 -7.957031 8.394531 -7.484375 8.71875 -6.890625 C 9.039062 -6.296875 9.203125 -5.65625 9.203125 -4.96875 Z M 8.46875 -4.6875 C 8.5 -5.457031 8.363281 -6.109375 8.0625 -6.640625 C 7.757812 -7.179688 7.34375 -7.582031 6.8125 -7.84375 C 6.289062 -8.113281 5.722656 -8.25 5.109375 -8.25 C 4.492188 -8.25 3.925781 -8.113281 3.40625 -7.84375 C 2.882812 -7.582031 2.457031 -7.179688 2.125 -6.640625 C 1.800781 -6.109375 1.628906 -5.457031 1.609375 -4.6875 Z M 8.46875 -4.6875 "/></g></g></g><g fill="#ffffff" fill-opacity="1"><g transform="translate(84.983164, 18.084608)"><g><path d="M 0.875 -4.375 C 0.875 -5.289062 1.050781 -6.085938 1.40625 -6.765625 C 1.769531 -7.441406 2.269531 -7.957031 2.90625 -8.3125 C 3.539062 -8.675781 4.273438 -8.859375 5.109375 -8.859375 C 6.203125 -8.859375 7.097656 -8.582031 7.796875 -8.03125 C 8.503906 -7.488281 8.945312 -6.753906 9.125 -5.828125 L 8.359375 -5.828125 C 8.222656 -6.578125 7.859375 -7.164062 7.265625 -7.59375 C 6.679688 -8.03125 5.960938 -8.25 5.109375 -8.25 C 4.460938 -8.25 3.875 -8.101562 3.34375 -7.8125 C 2.820312 -7.53125 2.398438 -7.097656 2.078125 -6.515625 C 1.765625 -5.929688 1.609375 -5.21875 1.609375 -4.375 C 1.609375 -3.53125 1.765625 -2.816406 2.078125 -2.234375 C 2.398438 -1.660156 2.820312 -1.226562 3.34375 -0.9375 C 3.875 -0.644531 4.460938 -0.5 5.109375 -0.5 C 5.960938 -0.5 6.679688 -0.710938 7.265625 -1.140625 C 7.859375 -1.566406 8.222656 -2.160156 8.359375 -2.921875 L 9.125 -2.921875 C 8.945312 -2.003906 8.503906 -1.265625 7.796875 -0.703125 C 7.085938 -0.148438 6.191406 0.125 5.109375 0.125 C 4.273438 0.125 3.539062 -0.0546875 2.90625 -0.421875 C 2.269531 -0.785156 1.769531 -1.304688 1.40625 -1.984375 C 1.050781 -2.671875 0.875 -3.46875 0.875 -4.375 Z M 0.875 -4.375 "/></g></g></g><g fill="#ffffff" fill-opacity="1"><g transform="translate(94.377225, 18.084608)"><g><path d="M 5.265625 -8.921875 C 6.304688 -8.921875 7.15625 -8.597656 7.8125 -7.953125 C 8.46875 -7.316406 8.796875 -6.375 8.796875 -5.125 L 8.796875 0 L 8.09375 0 L 8.09375 -5.078125 C 8.09375 -6.117188 7.828125 -6.914062 7.296875 -7.46875 C 6.773438 -8.019531 6.0625 -8.296875 5.15625 -8.296875 C 4.207031 -8.296875 3.453125 -7.992188 2.890625 -7.390625 C 2.328125 -6.785156 2.046875 -5.894531 2.046875 -4.71875 L 2.046875 0 L 1.328125 0 L 1.328125 -8.75 L 2.046875 -8.75 L 2.046875 -6.890625 C 2.296875 -7.546875 2.707031 -8.046875 3.28125 -8.390625 C 3.851562 -8.742188 4.515625 -8.921875 5.265625 -8.921875 Z M 5.265625 -8.921875 "/></g></g></g><g fill="#ffffff" fill-opacity="1"><g transform="translate(103.80351, 18.084608)"><g><path d="M 5.171875 0.125 C 4.359375 0.125 3.625 -0.0546875 2.96875 -0.421875 C 2.3125 -0.785156 1.796875 -1.304688 1.421875 -1.984375 C 1.054688 -2.671875 0.875 -3.46875 0.875 -4.375 C 0.875 -5.28125 1.0625 -6.070312 1.4375 -6.75 C 1.8125 -7.4375 2.328125 -7.957031 2.984375 -8.3125 C 3.648438 -8.675781 4.390625 -8.859375 5.203125 -8.859375 C 6.015625 -8.859375 6.75 -8.675781 7.40625 -8.3125 C 8.0625 -7.957031 8.570312 -7.441406 8.9375 -6.765625 C 9.3125 -6.085938 9.5 -5.289062 9.5 -4.375 C 9.5 -3.46875 9.3125 -2.671875 8.9375 -1.984375 C 8.5625 -1.304688 8.039062 -0.785156 7.375 -0.421875 C 6.71875 -0.0546875 5.984375 0.125 5.171875 0.125 Z M 5.171875 -0.515625 C 5.804688 -0.515625 6.398438 -0.65625 6.953125 -0.9375 C 7.503906 -1.226562 7.945312 -1.660156 8.28125 -2.234375 C 8.613281 -2.816406 8.78125 -3.53125 8.78125 -4.375 C 8.78125 -5.21875 8.613281 -5.925781 8.28125 -6.5 C 7.945312 -7.082031 7.503906 -7.515625 6.953125 -7.796875 C 6.410156 -8.085938 5.820312 -8.234375 5.1875 -8.234375 C 4.550781 -8.234375 3.960938 -8.085938 3.421875 -7.796875 C 2.878906 -7.515625 2.441406 -7.082031 2.109375 -6.5 C 1.773438 -5.925781 1.609375 -5.21875 1.609375 -4.375 C 1.609375 -3.53125 1.769531 -2.816406 2.09375 -2.234375 C 2.425781 -1.660156 2.863281 -1.226562 3.40625 -0.9375 C 3.945312 -0.65625 4.535156 -0.515625 5.171875 -0.515625 Z M 5.171875 -0.515625 "/></g></g></g><g fill="#ffffff" fill-opacity="1"><g transform="translate(113.584285, 18.084608)"><g><path d="M 2.046875 -11.921875 L 2.046875 0 L 1.328125 0 L 1.328125 -11.921875 Z M 2.046875 -11.921875 "/></g></g></g><g fill="#ffffff" fill-opacity="1"><g transform="translate(116.355661, 18.084608)"><g><path d="M 5.171875 0.125 C 4.359375 0.125 3.625 -0.0546875 2.96875 -0.421875 C 2.3125 -0.785156 1.796875 -1.304688 1.421875 -1.984375 C 1.054688 -2.671875 0.875 -3.46875 0.875 -4.375 C 0.875 -5.28125 1.0625 -6.070312 1.4375 -6.75 C 1.8125 -7.4375 2.328125 -7.957031 2.984375 -8.3125 C 3.648438 -8.675781 4.390625 -8.859375 5.203125 -8.859375 C 6.015625 -8.859375 6.75 -8.675781 7.40625 -8.3125 C 8.0625 -7.957031 8.570312 -7.441406 8.9375 -6.765625 C 9.3125 -6.085938 9.5 -5.289062 9.5 -4.375 C 9.5 -3.46875 9.3125 -2.671875 8.9375 -1.984375 C 8.5625 -1.304688 8.039062 -0.785156 7.375 -0.421875 C 6.71875 -0.0546875 5.984375 0.125 5.171875 0.125 Z M 5.171875 -0.515625 C 5.804688 -0.515625 6.398438 -0.65625 6.953125 -0.9375 C 7.503906 -1.226562 7.945312 -1.660156 8.28125 -2.234375 C 8.613281 -2.816406 8.78125 -3.53125 8.78125 -4.375 C 8.78125 -5.21875 8.613281 -5.925781 8.28125 -6.5 C 7.945312 -7.082031 7.503906 -7.515625 6.953125 -7.796875 C 6.410156 -8.085938 5.820312 -8.234375 5.1875 -8.234375 C 4.550781 -8.234375 3.960938 -8.085938 3.421875 -7.796875 C 2.878906 -7.515625 2.441406 -7.082031 2.109375 -6.5 C 1.773438 -5.925781 1.609375 -5.21875 1.609375 -4.375 C 1.609375 -3.53125 1.769531 -2.816406 2.09375 -2.234375 C 2.425781 -1.660156 2.863281 -1.226562 3.40625 -0.9375 C 3.945312 -0.65625 4.535156 -0.515625 5.171875 -0.515625 Z M 6.625 -11.484375 L 3.46875 -9.484375 L 3.46875 -10.078125 L 6.625 -12.1875 Z M 6.625 -11.484375 "/></g></g></g><g fill="#ffffff" fill-opacity="1"><g transform="translate(126.136436, 18.084608)"><g><path d="M 5.09375 -8.859375 C 6.007812 -8.859375 6.789062 -8.632812 7.4375 -8.1875 C 8.082031 -7.738281 8.535156 -7.164062 8.796875 -6.46875 L 8.796875 -8.75 L 9.515625 -8.75 L 9.515625 0.28125 C 9.515625 1.082031 9.335938 1.785156 8.984375 2.390625 C 8.628906 2.992188 8.148438 3.457031 7.546875 3.78125 C 6.953125 4.113281 6.285156 4.28125 5.546875 4.28125 C 4.453125 4.28125 3.539062 4.015625 2.8125 3.484375 C 2.09375 2.960938 1.625 2.257812 1.40625 1.375 L 2.125 1.375 C 2.34375 2.070312 2.742188 2.625 3.328125 3.03125 C 3.921875 3.445312 4.660156 3.65625 5.546875 3.65625 C 6.148438 3.65625 6.695312 3.515625 7.1875 3.234375 C 7.6875 2.960938 8.078125 2.570312 8.359375 2.0625 C 8.648438 1.5625 8.796875 0.96875 8.796875 0.28125 L 8.796875 -2.28125 C 8.535156 -1.582031 8.078125 -1.003906 7.421875 -0.546875 C 6.773438 -0.0976562 6 0.125 5.09375 0.125 C 4.269531 0.125 3.539062 -0.0546875 2.90625 -0.421875 C 2.269531 -0.796875 1.769531 -1.320312 1.40625 -2 C 1.050781 -2.6875 0.875 -3.476562 0.875 -4.375 C 0.875 -5.28125 1.050781 -6.070312 1.40625 -6.75 C 1.769531 -7.425781 2.269531 -7.945312 2.90625 -8.3125 C 3.539062 -8.675781 4.269531 -8.859375 5.09375 -8.859375 Z M 8.796875 -4.375 C 8.796875 -5.144531 8.632812 -5.820312 8.3125 -6.40625 C 8 -6.988281 7.566406 -7.4375 7.015625 -7.75 C 6.472656 -8.070312 5.863281 -8.234375 5.1875 -8.234375 C 4.476562 -8.234375 3.851562 -8.078125 3.3125 -7.765625 C 2.78125 -7.460938 2.363281 -7.019531 2.0625 -6.4375 C 1.757812 -5.863281 1.609375 -5.175781 1.609375 -4.375 C 1.609375 -3.582031 1.757812 -2.894531 2.0625 -2.3125 C 2.363281 -1.738281 2.785156 -1.296875 3.328125 -0.984375 C 3.867188 -0.671875 4.488281 -0.515625 5.1875 -0.515625 C 5.863281 -0.515625 6.476562 -0.671875 7.03125 -0.984375 C 7.582031 -1.304688 8.015625 -1.757812 8.328125 -2.34375 C 8.640625 -2.925781 8.796875 -3.601562 8.796875 -4.375 Z M 8.796875 -4.375 "/></g></g></g><g fill="#ffffff" fill-opacity="1"><g transform="translate(136.368401, 18.084608)"><g><path d="M 1.6875 -10.703125 C 1.519531 -10.703125 1.375 -10.753906 1.25 -10.859375 C 1.132812 -10.972656 1.078125 -11.128906 1.078125 -11.328125 C 1.078125 -11.503906 1.132812 -11.648438 1.25 -11.765625 C 1.375 -11.890625 1.519531 -11.953125 1.6875 -11.953125 C 1.863281 -11.953125 2.007812 -11.890625 2.125 -11.765625 C 2.238281 -11.648438 2.296875 -11.503906 2.296875 -11.328125 C 2.296875 -11.128906 2.238281 -10.972656 2.125 -10.859375 C 2.007812 -10.753906 1.863281 -10.703125 1.6875 -10.703125 Z M 2.046875 -8.75 L 2.046875 0 L 1.328125 0 L 1.328125 -8.75 Z M 2.046875 -8.75 "/></g></g></g><g fill="#ffffff" fill-opacity="1"><g transform="translate(139.139777, 18.084608)"><g><path d="M 0.875 -4.375 C 0.875 -5.289062 1.050781 -6.085938 1.40625 -6.765625 C 1.769531 -7.441406 2.269531 -7.957031 2.90625 -8.3125 C 3.539062 -8.675781 4.273438 -8.859375 5.109375 -8.859375 C 6.203125 -8.859375 7.097656 -8.582031 7.796875 -8.03125 C 8.503906 -7.488281 8.945312 -6.753906 9.125 -5.828125 L 8.359375 -5.828125 C 8.222656 -6.578125 7.859375 -7.164062 7.265625 -7.59375 C 6.679688 -8.03125 5.960938 -8.25 5.109375 -8.25 C 4.460938 -8.25 3.875 -8.101562 3.34375 -7.8125 C 2.820312 -7.53125 2.398438 -7.097656 2.078125 -6.515625 C 1.765625 -5.929688 1.609375 -5.21875 1.609375 -4.375 C 1.609375 -3.53125 1.765625 -2.816406 2.078125 -2.234375 C 2.398438 -1.660156 2.820312 -1.226562 3.34375 -0.9375 C 3.875 -0.644531 4.460938 -0.5 5.109375 -0.5 C 5.960938 -0.5 6.679688 -0.710938 7.265625 -1.140625 C 7.859375 -1.566406 8.222656 -2.160156 8.359375 -2.921875 L 9.125 -2.921875 C 8.945312 -2.003906 8.503906 -1.265625 7.796875 -0.703125 C 7.085938 -0.148438 6.191406 0.125 5.109375 0.125 C 4.273438 0.125 3.539062 -0.0546875 2.90625 -0.421875 C 2.269531 -0.785156 1.769531 -1.304688 1.40625 -1.984375 C 1.050781 -2.671875 0.875 -3.46875 0.875 -4.375 Z M 0.875 -4.375 "/></g></g></g><g fill="#ffffff" fill-opacity="1"><g transform="translate(148.533837, 18.084608)"><g><path d="M 0.875 -4.375 C 0.875 -5.28125 1.050781 -6.070312 1.40625 -6.75 C 1.769531 -7.425781 2.269531 -7.945312 2.90625 -8.3125 C 3.539062 -8.675781 4.269531 -8.859375 5.09375 -8.859375 C 6.007812 -8.859375 6.789062 -8.628906 7.4375 -8.171875 C 8.082031 -7.722656 8.535156 -7.148438 8.796875 -6.453125 L 8.796875 -8.75 L 9.515625 -8.75 L 9.515625 0 L 8.796875 0 L 8.796875 -2.296875 C 8.535156 -1.585938 8.078125 -1.003906 7.421875 -0.546875 C 6.773438 -0.0976562 6 0.125 5.09375 0.125 C 4.269531 0.125 3.539062 -0.0546875 2.90625 -0.421875 C 2.269531 -0.796875 1.769531 -1.320312 1.40625 -2 C 1.050781 -2.6875 0.875 -3.476562 0.875 -4.375 Z M 8.796875 -4.375 C 8.796875 -5.144531 8.632812 -5.820312 8.3125 -6.40625 C 8 -6.988281 7.566406 -7.4375 7.015625 -7.75 C 6.472656 -8.070312 5.863281 -8.234375 5.1875 -8.234375 C 4.476562 -8.234375 3.851562 -8.078125 3.3125 -7.765625 C 2.78125 -7.460938 2.363281 -7.019531 2.0625 -6.4375 C 1.757812 -5.863281 1.609375 -5.175781 1.609375 -4.375 C 1.609375 -3.582031 1.757812 -2.894531 2.0625 -2.3125 C 2.363281 -1.738281 2.785156 -1.296875 3.328125 -0.984375 C 3.867188 -0.671875 4.488281 -0.515625 5.1875 -0.515625 C 5.863281 -0.515625 6.476562 -0.671875 7.03125 -0.984375 C 7.582031 -1.304688 8.015625 -1.757812 8.328125 -2.34375 C 8.640625 -2.925781 8.796875 -3.601562 8.796875 -4.375 Z M 8.796875 -4.375 "/></g></g></g><g fill="#ffffff" fill-opacity="1"><g transform="translate(158.765802, 18.084608)"><g><path d="M 4.234375 0.125 C 3.253906 0.125 2.457031 -0.0859375 1.84375 -0.515625 C 1.226562 -0.941406 0.882812 -1.554688 0.8125 -2.359375 L 1.546875 -2.359375 C 1.597656 -1.785156 1.859375 -1.332031 2.328125 -1 C 2.796875 -0.664062 3.429688 -0.5 4.234375 -0.5 C 4.898438 -0.5 5.425781 -0.664062 5.8125 -1 C 6.207031 -1.34375 6.40625 -1.757812 6.40625 -2.25 C 6.40625 -2.59375 6.300781 -2.875 6.09375 -3.09375 C 5.882812 -3.320312 5.625 -3.492188 5.3125 -3.609375 C 5 -3.722656 4.578125 -3.851562 4.046875 -4 C 3.398438 -4.164062 2.878906 -4.332031 2.484375 -4.5 C 2.085938 -4.664062 1.75 -4.914062 1.46875 -5.25 C 1.1875 -5.582031 1.046875 -6.03125 1.046875 -6.59375 C 1.046875 -7 1.164062 -7.375 1.40625 -7.71875 C 1.65625 -8.070312 2 -8.347656 2.4375 -8.546875 C 2.882812 -8.753906 3.390625 -8.859375 3.953125 -8.859375 C 4.859375 -8.859375 5.59375 -8.628906 6.15625 -8.171875 C 6.71875 -7.710938 7.023438 -7.082031 7.078125 -6.28125 L 6.34375 -6.28125 C 6.3125 -6.863281 6.085938 -7.335938 5.671875 -7.703125 C 5.253906 -8.066406 4.675781 -8.25 3.9375 -8.25 C 3.3125 -8.25 2.789062 -8.085938 2.375 -7.765625 C 1.96875 -7.441406 1.765625 -7.050781 1.765625 -6.59375 C 1.765625 -6.1875 1.878906 -5.851562 2.109375 -5.59375 C 2.347656 -5.34375 2.632812 -5.148438 2.96875 -5.015625 C 3.3125 -4.878906 3.757812 -4.738281 4.3125 -4.59375 C 4.925781 -4.425781 5.414062 -4.265625 5.78125 -4.109375 C 6.15625 -3.953125 6.472656 -3.726562 6.734375 -3.4375 C 6.992188 -3.144531 7.125 -2.75 7.125 -2.25 C 7.125 -1.800781 7 -1.394531 6.75 -1.03125 C 6.5 -0.664062 6.15625 -0.378906 5.71875 -0.171875 C 5.28125 0.0234375 4.785156 0.125 4.234375 0.125 Z M 4.234375 0.125 "/></g></g></g></g></g><g clip-path="url(#3a208708a3)"><g clip-path="url(#b408e100c1)"><path stroke-linecap="butt" transform="matrix(-0.75, 0, 0, -0.75, 141.561922, 134.503482)" fill="none" stroke-linejoin="miter" d="M 23.577356 5.212976 L 38.228399 30.848394 C 38.842982 31.926519 38.837774 33.249436 38.217982 34.322353 C 37.592982 35.39527 36.447149 36.056728 35.207565 36.056728 L 5.99923 36.056728 C 4.759647 36.056728 3.608605 35.39527 2.988813 34.322353 C 2.363813 33.249436 2.358605 31.926519 2.978397 30.848394 L 17.624231 5.212976 C 18.233606 4.145268 19.369023 3.483809 20.603398 3.483809 C 21.832565 3.483809 22.967981 4.145268 23.577356 5.212976 Z M 23.577356 5.212976 " stroke="#18cb96" stroke-width="2" stroke-opacity="1" stroke-miterlimit="4"/></g></g><g clip-path="url(#8473f7a476)"><g clip-path="url(#ceabac66c0)"><g transform="matrix(1, 0, 0, 1, 112, 102)"><g clip-path="url(#3bd2250242)"><g clip-path="url(#2f04d73572)"><g clip-path="url(#50781c02b1)"><path fill="#18cb96" d="M 27.929688 24.53125 L 0.246094 24.53125 L 0.246094 0.34375 L 27.929688 0.34375 Z M 27.929688 24.53125 " fill-opacity="1" fill-rule="nonzero"/></g></g></g></g></g></g><g clip-path="url(#510fe0a94a)"><g clip-path="url(#1335a723c3)"><path stroke-linecap="butt" transform="matrix(-0.75, 0, 0, -0.75, 139.927787, 126.532389)" fill="none" stroke-linejoin="miter" d="M 19.414132 1.735893 L 35.851632 30.49631 C 36.054757 30.855685 36.054757 31.298393 35.846424 31.657768 C 35.63809 32.011935 35.257882 32.235893 34.841215 32.235893 L 2.002674 32.235893 C 1.586007 32.235893 1.205799 32.011935 0.997465 31.657768 C 0.789132 31.298393 0.789132 30.855685 0.992257 30.49631 L 17.429757 1.735893 C 17.632882 1.381727 18.01309 1.157768 18.41934 1.157768 C 18.830799 1.157768 19.211007 1.381727 19.414132 1.735893 Z M 19.414132 1.735893 " stroke="#18cb96" stroke-width="2" stroke-opacity="1" stroke-miterlimit="4"/></g></g></svg>