<svg xmlns="http://www.w3.org/2000/svg" xmlns:xlink="http://www.w3.org/1999/xlink" width="320" zoomAndPan="magnify" viewBox="0 0 240 239.999995" height="320" preserveAspectRatio="xMidYMid meet" version="1.0"><defs><g/><clipPath id="20567c5459"><rect x="0" width="162" y="0" height="62"/></clipPath><clipPath id="77ae0274b0"><path d="M 112.109375 115.058594 L 140 115.058594 L 140 139.640625 L 112.109375 139.640625 Z M 112.109375 115.058594 " clip-rule="nonzero"/></clipPath><clipPath id="99be8fddf3"><path d="M 123.878906 138.148438 L 112.890625 118.921875 C 112.429688 118.113281 112.433594 117.121094 112.898438 116.316406 C 113.367188 115.511719 114.226562 115.015625 115.15625 115.015625 L 137.0625 115.015625 C 137.992188 115.015625 138.855469 115.511719 139.320312 116.316406 C 139.789062 117.121094 139.792969 118.113281 139.328125 118.921875 L 128.34375 138.148438 C 127.886719 138.949219 127.035156 139.445312 126.109375 139.445312 C 125.1875 139.445312 124.335938 138.949219 123.878906 138.148438 Z M 123.878906 138.148438 " clip-rule="nonzero"/></clipPath><clipPath id="4750b6631f"><path d="M 112.90625 109.902344 L 139.359375 109.902344 L 139.359375 133.238281 L 112.90625 133.238281 Z M 112.90625 109.902344 " clip-rule="nonzero"/></clipPath><clipPath id="80a98e2752"><path d="M 125.363281 132.785156 L 113.03125 111.203125 C 112.875 110.933594 112.878906 110.601562 113.03125 110.335938 C 113.1875 110.066406 113.476562 109.902344 113.785156 109.902344 L 138.429688 109.902344 C 138.738281 109.902344 139.023438 110.066406 139.179688 110.335938 C 139.335938 110.601562 139.335938 110.933594 139.183594 111.203125 L 126.851562 132.785156 C 126.699219 133.054688 126.414062 133.21875 126.105469 133.21875 C 125.800781 133.21875 125.515625 133.054688 125.363281 132.785156 Z M 125.363281 132.785156 " clip-rule="nonzero"/></clipPath><clipPath id="5dcc18c74e"><path d="M 0.90625 0.902344 L 27.359375 0.902344 L 27.359375 24.238281 L 0.90625 24.238281 Z M 0.90625 0.902344 " clip-rule="nonzero"/></clipPath><clipPath id="b24bd8f5dc"><path d="M 13.363281 23.785156 L 1.03125 2.203125 C 0.875 1.933594 0.878906 1.601562 1.03125 1.335938 C 1.1875 1.066406 1.476562 0.902344 1.785156 0.902344 L 26.429688 0.902344 C 26.738281 0.902344 27.023438 1.066406 27.179688 1.335938 C 27.335938 1.601562 27.335938 1.933594 27.183594 2.203125 L 14.851562 23.785156 C 14.699219 24.054688 14.414062 24.21875 14.105469 24.21875 C 13.800781 24.21875 13.515625 24.054688 13.363281 23.785156 Z M 13.363281 23.785156 " clip-rule="nonzero"/></clipPath><clipPath id="6fa8593c29"><rect x="0" width="28" y="0" height="25"/></clipPath><clipPath id="e0978b4ef7"><path d="M 112.726562 110.089844 L 139.496094 110.089844 L 139.496094 133.226562 L 112.726562 133.226562 Z M 112.726562 110.089844 " clip-rule="nonzero"/></clipPath><clipPath id="3e92f50725"><path d="M 125.367188 132.785156 L 113.039062 111.214844 C 112.886719 110.945312 112.886719 110.613281 113.042969 110.34375 C 113.199219 110.078125 113.484375 109.914062 113.796875 109.914062 L 138.425781 109.914062 C 138.738281 109.914062 139.023438 110.078125 139.179688 110.34375 C 139.335938 110.613281 139.335938 110.945312 139.183594 111.214844 L 126.855469 132.785156 C 126.703125 133.054688 126.417969 133.21875 126.113281 133.21875 C 125.804688 133.21875 125.519531 133.054688 125.367188 132.785156 Z M 125.367188 132.785156 " clip-rule="nonzero"/></clipPath></defs><g transform="matrix(1, 0, 0, 1, 39, 89)"><g clip-path="url(#20567c5459)"><g fill="#373643" fill-opacity="1"><g transform="translate(0.97804, 48.900844)"><g><path d="M 23.921875 -26.078125 C 24.816406 -26.078125 25.535156 -25.785156 26.078125 -25.203125 C 26.617188 -24.628906 26.890625 -23.945312 26.890625 -23.15625 L 26.890625 -1.59375 C 26.890625 0.902344 26.3125 3.007812 25.15625 4.71875 C 24 6.425781 22.445312 7.707031 20.5 8.5625 C 18.550781 9.414062 16.378906 9.84375 13.984375 9.84375 C 12.003906 9.84375 10.210938 9.582031 8.609375 9.0625 C 7.003906 8.550781 5.5 7.648438 4.09375 6.359375 C 3.414062 5.671875 3.09375 4.96875 3.125 4.25 C 3.15625 3.53125 3.425781 2.914062 3.9375 2.40625 C 4.457031 1.894531 5.082031 1.601562 5.8125 1.53125 C 6.550781 1.46875 7.257812 1.742188 7.9375 2.359375 C 9 3.273438 9.984375 3.867188 10.890625 4.140625 C 11.796875 4.421875 12.828125 4.5625 13.984375 4.5625 C 15.210938 4.5625 16.375 4.347656 17.46875 3.921875 C 18.5625 3.492188 19.445312 2.816406 20.125 1.890625 C 20.8125 0.972656 21.15625 -0.1875 21.15625 -1.59375 L 21.15625 -2.046875 C 20 -1.191406 18.734375 -0.550781 17.359375 -0.125 C 15.992188 0.300781 14.71875 0.515625 13.53125 0.515625 C 11.070312 0.515625 8.910156 -0.046875 7.046875 -1.171875 C 5.179688 -2.304688 3.726562 -3.894531 2.6875 -5.9375 C 1.644531 -7.988281 1.125 -10.378906 1.125 -13.109375 C 1.125 -15.773438 1.648438 -18.113281 2.703125 -20.125 C 3.765625 -22.144531 5.242188 -23.726562 7.140625 -24.875 C 9.035156 -26.019531 11.234375 -26.59375 13.734375 -26.59375 C 14.890625 -26.59375 16.125 -26.421875 17.4375 -26.078125 C 18.757812 -25.734375 20 -25.132812 21.15625 -24.28125 C 21.53125 -25.476562 22.453125 -26.078125 23.921875 -26.078125 Z M 13.671875 -4.65625 C 15.242188 -4.65625 16.738281 -5 18.15625 -5.6875 C 19.570312 -6.375 20.554688 -7.398438 21.109375 -8.765625 L 21.109375 -17.3125 C 20.460938 -18.613281 19.476562 -19.625 18.15625 -20.34375 C 16.84375 -21.0625 15.503906 -21.421875 14.140625 -21.421875 C 11.984375 -21.421875 10.25 -20.632812 8.9375 -19.0625 C 7.625 -17.488281 6.96875 -15.488281 6.96875 -13.0625 C 6.96875 -10.539062 7.582031 -8.507812 8.8125 -6.96875 C 10.039062 -5.425781 11.660156 -4.65625 13.671875 -4.65625 Z M 13.671875 -4.65625 "/></g></g></g><g fill="#373643" fill-opacity="1"><g transform="translate(30.691286, 48.900844)"><g><path d="M 13.828125 -26.078125 C 14.753906 -26.078125 15.488281 -25.878906 16.03125 -25.484375 C 16.582031 -25.097656 16.859375 -24.457031 16.859375 -23.5625 C 16.859375 -22.75 16.582031 -22.101562 16.03125 -21.625 C 15.488281 -21.144531 14.753906 -20.90625 13.828125 -20.90625 C 11.679688 -20.90625 10.171875 -20.132812 9.296875 -18.59375 C 8.429688 -17.0625 8 -14.976562 8 -12.34375 L 8 -2.609375 C 8 -1.859375 7.722656 -1.234375 7.171875 -0.734375 C 6.628906 -0.242188 5.960938 0 5.171875 0 C 4.285156 0 3.566406 -0.242188 3.015625 -0.734375 C 2.472656 -1.234375 2.203125 -1.859375 2.203125 -2.609375 L 2.203125 -23.46875 C 2.203125 -24.28125 2.515625 -24.914062 3.140625 -25.375 C 3.773438 -25.84375 4.453125 -26.078125 5.171875 -26.078125 C 5.890625 -26.078125 6.539062 -25.851562 7.125 -25.40625 C 7.707031 -24.96875 8 -24.320312 8 -23.46875 L 8 -23.15625 C 8.75 -24.144531 9.617188 -24.878906 10.609375 -25.359375 C 11.597656 -25.835938 12.671875 -26.078125 13.828125 -26.078125 Z M 13.828125 -26.078125 "/></g></g></g><g fill="#373643" fill-opacity="1"><g transform="translate(46.008924, 48.900844)"><g><path d="M 14.65625 -26.59375 C 17.382812 -26.59375 19.773438 -26.019531 21.828125 -24.875 C 23.878906 -23.726562 25.46875 -22.128906 26.59375 -20.078125 C 27.71875 -18.035156 28.28125 -15.644531 28.28125 -12.90625 C 28.25 -10.25 27.660156 -7.910156 26.515625 -5.890625 C 25.367188 -3.878906 23.78125 -2.304688 21.75 -1.171875 C 19.71875 -0.046875 17.351562 0.515625 14.65625 0.515625 C 11.988281 0.515625 9.628906 -0.046875 7.578125 -1.171875 C 5.535156 -2.304688 3.941406 -3.878906 2.796875 -5.890625 C 1.648438 -7.910156 1.0625 -10.25 1.03125 -12.90625 C 1.03125 -15.644531 1.597656 -18.035156 2.734375 -20.078125 C 3.878906 -22.128906 5.476562 -23.726562 7.53125 -24.875 C 9.582031 -26.019531 11.957031 -26.59375 14.65625 -26.59375 Z M 14.65625 -4.609375 C 16.976562 -4.609375 18.828125 -5.375 20.203125 -6.90625 C 21.585938 -8.445312 22.28125 -10.445312 22.28125 -12.90625 C 22.28125 -15.4375 21.585938 -17.492188 20.203125 -19.078125 C 18.828125 -20.671875 16.976562 -21.46875 14.65625 -21.46875 C 12.363281 -21.46875 10.515625 -20.671875 9.109375 -19.078125 C 7.710938 -17.492188 7.015625 -15.4375 7.015625 -12.90625 C 7.015625 -10.445312 7.710938 -8.445312 9.109375 -6.90625 C 10.515625 -5.375 12.363281 -4.609375 14.65625 -4.609375 Z M 14.65625 -4.609375 "/></g></g></g><g fill="#373643" fill-opacity="1"><g transform="translate(74.449837, 48.900844)"><g/></g></g><g fill="#373643" fill-opacity="1"><g transform="translate(86.488758, 48.900844)"><g/></g></g><g fill="#373643" fill-opacity="1"><g transform="translate(98.537667, 48.900844)"><g><path d="M 14.65625 -4.5625 C 15.644531 -4.5625 16.617188 -4.695312 17.578125 -4.96875 C 18.535156 -5.238281 19.421875 -5.703125 20.234375 -6.359375 C 21.023438 -7.066406 21.796875 -7.394531 22.546875 -7.34375 C 23.296875 -7.300781 23.914062 -7.03125 24.40625 -6.53125 C 24.90625 -6.039062 25.15625 -5.425781 25.15625 -4.6875 C 25.15625 -3.957031 24.796875 -3.25 24.078125 -2.5625 C 22.878906 -1.394531 21.460938 -0.582031 19.828125 -0.125 C 18.191406 0.332031 16.519531 0.546875 14.8125 0.515625 C 12.144531 0.515625 9.796875 -0.03125 7.765625 -1.125 C 5.734375 -2.21875 4.144531 -3.738281 3 -5.6875 C 1.851562 -7.632812 1.28125 -9.890625 1.28125 -12.453125 C 1.28125 -15.253906 1.828125 -17.710938 2.921875 -19.828125 C 4.015625 -21.941406 5.554688 -23.597656 7.546875 -24.796875 C 9.546875 -25.992188 11.914062 -26.59375 14.65625 -26.59375 C 17.382812 -26.59375 19.703125 -26.035156 21.609375 -24.921875 C 23.523438 -23.816406 24.988281 -22.265625 26 -20.265625 C 27.007812 -18.265625 27.515625 -15.929688 27.515625 -13.265625 C 27.515625 -12.410156 27.34375 -11.6875 27 -11.09375 C 26.65625 -10.5 25.75 -10.203125 24.28125 -10.203125 L 7.21875 -10.203125 C 7.695312 -8.523438 8.601562 -7.164062 9.9375 -6.125 C 11.269531 -5.082031 12.84375 -4.5625 14.65625 -4.5625 Z M 14.703125 -21.515625 C 12.722656 -21.515625 11.066406 -20.890625 9.734375 -19.640625 C 8.398438 -18.398438 7.546875 -16.769531 7.171875 -14.75 L 22.078125 -14.75 C 21.910156 -16.769531 21.242188 -18.398438 20.078125 -19.640625 C 18.921875 -20.890625 17.128906 -21.515625 14.703125 -21.515625 Z M 14.703125 -21.515625 "/></g></g></g><g fill="#373643" fill-opacity="1"><g transform="translate(128.302143, 48.900844)"><g><path d="M 0.671875 -6.09375 C 0.429688 -7.050781 0.648438 -7.820312 1.328125 -8.40625 C 2.015625 -8.988281 2.769531 -9.28125 3.59375 -9.28125 C 4.207031 -9.28125 4.75 -9.097656 5.21875 -8.734375 C 5.695312 -8.378906 6.054688 -7.84375 6.296875 -7.125 C 6.503906 -6.507812 6.945312 -6.003906 7.625 -5.609375 C 8.3125 -5.210938 9.109375 -4.929688 10.015625 -4.765625 C 10.921875 -4.597656 11.832031 -4.515625 12.75 -4.515625 C 14.601562 -4.515625 16.09375 -4.84375 17.21875 -5.5 C 18.34375 -6.164062 18.90625 -7.015625 18.90625 -8.046875 C 18.90625 -8.765625 18.601562 -9.289062 18 -9.625 C 17.40625 -9.96875 16.617188 -10.207031 15.640625 -10.34375 C 14.671875 -10.476562 13.640625 -10.582031 12.546875 -10.65625 C 11.117188 -10.789062 9.710938 -10.957031 8.328125 -11.15625 C 6.941406 -11.363281 5.6875 -11.71875 4.5625 -12.21875 C 3.4375 -12.71875 2.53125 -13.453125 1.84375 -14.421875 C 1.15625 -15.390625 0.8125 -16.710938 0.8125 -18.390625 C 0.8125 -20.035156 1.289062 -21.472656 2.25 -22.703125 C 3.207031 -23.929688 4.554688 -24.882812 6.296875 -25.5625 C 8.046875 -26.25 10.0625 -26.59375 12.34375 -26.59375 C 13.675781 -26.59375 15.109375 -26.460938 16.640625 -26.203125 C 18.179688 -25.953125 19.609375 -25.429688 20.921875 -24.640625 C 22.242188 -23.859375 23.210938 -22.644531 23.828125 -21 C 24.066406 -20.320312 24.046875 -19.71875 23.765625 -19.1875 C 23.492188 -18.65625 23.09375 -18.253906 22.5625 -17.984375 C 22.039062 -17.710938 21.503906 -17.578125 20.953125 -17.578125 C 20.335938 -17.578125 19.832031 -17.695312 19.4375 -17.9375 C 19.050781 -18.175781 18.71875 -18.582031 18.4375 -19.15625 C 18.132812 -19.875 17.613281 -20.40625 16.875 -20.75 C 16.144531 -21.09375 15.359375 -21.304688 14.515625 -21.390625 C 13.679688 -21.472656 12.957031 -21.515625 12.34375 -21.515625 C 10.632812 -21.515625 9.257812 -21.222656 8.21875 -20.640625 C 7.175781 -20.066406 6.65625 -19.300781 6.65625 -18.34375 C 6.65625 -17.519531 6.925781 -16.960938 7.46875 -16.671875 C 8.019531 -16.378906 8.765625 -16.207031 9.703125 -16.15625 C 10.648438 -16.113281 11.703125 -16.019531 12.859375 -15.875 C 14.296875 -15.707031 15.710938 -15.519531 17.109375 -15.3125 C 18.515625 -15.113281 19.796875 -14.765625 20.953125 -14.265625 C 22.117188 -13.773438 23.039062 -13.039062 23.71875 -12.0625 C 24.40625 -11.09375 24.75 -9.753906 24.75 -8.046875 C 24.75 -6.367188 24.242188 -4.878906 23.234375 -3.578125 C 22.222656 -2.285156 20.820312 -1.28125 19.03125 -0.5625 C 17.238281 0.152344 15.144531 0.515625 12.75 0.515625 C 11.695312 0.515625 10.546875 0.4375 9.296875 0.28125 C 8.046875 0.125 6.832031 -0.179688 5.65625 -0.640625 C 4.476562 -1.097656 3.445312 -1.757812 2.5625 -2.625 C 1.675781 -3.5 1.046875 -4.65625 0.671875 -6.09375 Z M 0.671875 -6.09375 "/></g></g></g><g fill="#18cb96" fill-opacity="1"><g transform="translate(153.772977, 48.900844)"><g><path d="M 3.6875 -5.484375 C 4.675781 -5.484375 5.46875 -5.203125 6.0625 -4.640625 C 6.664062 -4.078125 6.96875 -3.347656 6.96875 -2.453125 C 6.96875 -1.597656 6.664062 -0.890625 6.0625 -0.328125 C 5.46875 0.230469 4.675781 0.515625 3.6875 0.515625 C 2.726562 0.515625 1.925781 0.230469 1.28125 -0.328125 C 0.632812 -0.890625 0.3125 -1.597656 0.3125 -2.453125 C 0.3125 -3.347656 0.632812 -4.078125 1.28125 -4.640625 C 1.925781 -5.203125 2.726562 -5.484375 3.6875 -5.484375 Z M 3.6875 -5.484375 "/></g></g></g></g></g><g clip-path="url(#77ae0274b0)"><g clip-path="url(#99be8fddf3)"><path stroke-linecap="butt" transform="matrix(-0.75, 0, 0, -0.75, 141.561922, 142.059176)" fill="none" stroke-linejoin="miter" d="M 23.577356 5.214318 L 38.228399 30.849736 C 38.842982 31.927861 38.837774 33.250778 38.217982 34.323695 C 37.592982 35.396612 36.447149 36.05807 35.207565 36.05807 L 5.99923 36.05807 C 4.759647 36.05807 3.608605 35.396612 2.988813 34.323695 C 2.363813 33.250778 2.358605 31.927861 2.978397 30.849736 L 17.624231 5.214318 C 18.233606 4.14661 19.369023 3.485151 20.603398 3.485151 C 21.832565 3.485151 22.967981 4.14661 23.577356 5.214318 Z M 23.577356 5.214318 " stroke="#18cb96" stroke-width="2" stroke-opacity="1" stroke-miterlimit="4"/></g></g><g clip-path="url(#4750b6631f)"><g clip-path="url(#80a98e2752)"><g transform="matrix(1, 0, 0, 1, 112, 109)"><g clip-path="url(#6fa8593c29)"><g clip-path="url(#5dcc18c74e)"><g clip-path="url(#b24bd8f5dc)"><path fill="#18cb96" d="M 27.929688 25.089844 L 0.246094 25.089844 L 0.246094 0.902344 L 27.929688 0.902344 Z M 27.929688 25.089844 " fill-opacity="1" fill-rule="nonzero"/></g></g></g></g></g></g><g clip-path="url(#e0978b4ef7)"><g clip-path="url(#3e92f50725)"><path stroke-linecap="butt" transform="matrix(-0.75, 0, 0, -0.75, 139.927787, 134.088083)" fill="none" stroke-linejoin="miter" d="M 19.414132 1.737235 L 35.851632 30.497652 C 36.054757 30.857027 36.054757 31.299735 35.846424 31.65911 C 35.63809 32.013277 35.257882 32.232027 34.841215 32.232027 L 2.002674 32.232027 C 1.586007 32.232027 1.205799 32.013277 0.997465 31.65911 C 0.789132 31.299735 0.789132 30.857027 0.992257 30.497652 L 17.429757 1.737235 C 17.632882 1.37786 18.01309 1.15911 18.41934 1.15911 C 18.830799 1.15911 19.211007 1.37786 19.414132 1.737235 Z M 19.414132 1.737235 " stroke="#18cb96" stroke-width="2" stroke-opacity="1" stroke-miterlimit="4"/></g></g></svg>